# xmcd CD database file
#
# Track frame offsets:
#	150
#	12320
#	35733
#	52149
#	64683
#	89213
#	116759
#	130720
#	149987
#	161849
#	186191
#	197306
#	215356
#	228202
#
# Disc length: 3280 seconds
#
# Revision: 0
# Processed by: cddbd v1.5.2PL0 Copyright (c) Steve Scherf et al.
# Submitted via: jetAudio 7
#
DISCID=d50cce0e
DTITLE=林海 Lin Hai - 猫 Cat
DYEAR=2000
DGENRE=Classical
TTITLE0=咪咪 Mimi
TTITLE1=邂逅 Nice Meeting You
TTITLE2=新家 A New Home
TTITLE3=嬉戏 Crazy Ridiculous
TTITLE4=思念 Missing You
TTITLE5=白日梦 Daydreaming
TTITLE6=快乐进行曲 Happy Together
TTITLE7=离家 Far away from Home
TTITLE8=自己的影子 A Shadow of Myself
TTITLE9=呢喃 Sweet Talk
TTITLE10=猫乐园 Cat's Paradise
TTITLE11=守候 Keeping You Accompanied
TTITLE12=天堂 Heaven
TTITLE13=守候（钢琴版） Bonus Track: Keeping You Accompan
TTITLE13=ied (piano so
EXTD=YEAR: 2000 ID3G: 42
EXTT0=
EXTT1=
EXTT2=
EXTT3=
EXTT4=
EXTT5=
EXTT6=
EXTT7=
EXTT8=
EXTT9=
EXTT10=
EXTT11=
EXTT12=
EXTT13=
PLAYORDER=
